<svg width="16" height="16" viewBox="0 0 16 16" fill="none" xmlns="http://www.w3.org/2000/svg">
<g clip-path="url(#clip0_11220_25829)">
<path d="M8.51163 1.17838C8.51163 0.895812 8.28256 0.666748 8 0.666748C7.71744 0.666748 7.48837 0.895812 7.48837 1.17838C7.48837 4.6648 4.66472 7.48845 1.17829 7.48845C0.89573 7.48845 0.666666 7.71752 0.666666 8.00008C0.666666 8.28265 0.89573 8.51171 1.17829 8.51171C4.66472 8.51171 7.48837 11.3354 7.48837 14.8218C7.48837 15.1044 7.71744 15.3334 8 15.3334C8.28256 15.3334 8.51163 15.1044 8.51163 14.8218C8.51163 11.3354 11.3353 8.51171 14.8217 8.51171C15.1043 8.51171 15.3333 8.28265 15.3333 8.00008C15.3333 7.71752 15.1043 7.48845 14.8217 7.48845C11.3353 7.48845 8.51163 4.6648 8.51163 1.17838Z" fill="white"/>
</g>
<defs>
<clipPath id="clip0_11220_25829">
<rect width="16" height="16" fill="white"/>
</clipPath>
</defs>
</svg>
