<svg width="12" height="12" viewBox="0 0 12 12" fill="none" xmlns="http://www.w3.org/2000/svg">
<g clip-path="url(#clip0_4157_10787)">
<path d="M6.38372 0.883721C6.38372 0.671798 6.21192 0.5 6 0.5C5.78808 0.5 5.61628 0.671798 5.61628 0.883721C5.61628 3.49854 3.49854 5.61628 0.883721 5.61628C0.671798 5.61628 0.5 5.78808 0.5 6C0.5 6.21192 0.671798 6.38372 0.883721 6.38372C3.49854 6.38372 5.61628 8.50146 5.61628 11.1163C5.61628 11.3282 5.78808 11.5 6 11.5C6.21192 11.5 6.38372 11.3282 6.38372 11.1163C6.38372 8.50146 8.50146 6.38372 11.1163 6.38372C11.3282 6.38372 11.5 6.21192 11.5 6C11.5 5.78808 11.3282 5.61628 11.1163 5.61628C8.50146 5.61628 6.38372 3.49854 6.38372 0.883721Z" fill="#984AE8"/>
</g>
<defs>
<clipPath id="clip0_4157_10787">
<rect width="12" height="12" fill="white"/>
</clipPath>
</defs>
</svg>
