<svg width="37" height="15" viewBox="0 0 37 15" fill="none" xmlns="http://www.w3.org/2000/svg">
<path d="M4 0.5H33C34.933 0.5 36.5 2.067 36.5 4V11C36.5 12.933 34.933 14.5 33 14.5H4C2.067 14.5 0.5 12.933 0.5 11V4C0.5 2.067 2.067 0.5 4 0.5Z" stroke="#3F63C8"/>
<path d="M9.85285 7.13C10.5229 7.33 10.9829 7.99 10.9829 8.9C10.9829 10.25 10.0029 11 8.41285 11H5.68285V3.8H8.51285C9.79285 3.8 10.8529 4.25 10.8529 5.61C10.8529 6.39 10.4429 6.88 9.85285 7.13ZM8.51285 4.81H6.90285V6.68H8.51285C9.18285 6.68 9.63285 6.37 9.63285 5.73C9.63285 5.06 9.12285 4.81 8.51285 4.81ZM6.90285 9.95H8.37285C9.19285 9.95 9.72285 9.54 9.72285 8.79C9.72285 7.96 9.08285 7.68 8.40285 7.68H6.90285V9.95ZM12.8137 11V3.8H17.4837V4.85H14.0337V6.8H16.5937V7.81H14.0337V9.95H17.5637V11H12.8137ZM24.4214 3.8V4.92H22.2514V11H21.0214V4.92H18.8614V3.8H24.4214ZM31.8256 11H30.4756L29.6256 8.88H26.6756L25.8156 11H24.4656L27.4956 3.8H28.8256L31.8256 11ZM28.1556 5.19L27.0656 7.9H29.2356L28.1556 5.19Z" fill="#3F63C8"/>
</svg>
