<svg width="40" height="40" viewBox="0 0 40 40" fill="none" xmlns="http://www.w3.org/2000/svg">
<circle cx="19.9998" cy="19.9998" r="14.16" fill="white"/>
<path d="M40 20C40 8.9544 31.0456 0 20 0C8.9544 0 0 8.9544 0 20C0 31.0456 8.9544 40 20 40C31.0456 40 40 31.0456 40 20ZM28.8336 30.6H23.5816V18.976H18.5552V30.6H13.272V18.976H10.276V14.676H13.272V13.3704C13.272 9.9632 15.8496 7.6384 19.684 7.6384H23.5824V11.9376H20.5544C19.3296 11.9376 18.556 12.6064 18.556 13.6896V14.676H28.8344V30.6H28.8336Z" fill="#222325"/>
</svg>
