<svg width="1667" height="660" viewBox="0 0 1667 660" fill="none" xmlns="http://www.w3.org/2000/svg">
<path d="M186.618 117.555C282.866 117.555 357.807 193.965 357.807 319.602C357.807 449.647 282.866 520.18 186.618 520.18C132.984 520.18 87.4314 488.587 63.9204 451.116V659.776H0V128.576H63.9204V196.17C80.0842 160.168 121.963 117.555 186.618 117.555ZM180.74 464.341C245.396 464.341 293.152 415.115 293.152 321.806C293.152 228.497 245.396 172.659 180.74 172.659C116.82 172.659 64.6551 229.967 64.6551 321.072C64.6551 413.646 116.82 464.341 180.74 464.341Z" fill="#E4E5E7"/>
<path d="M565.032 117.555C667.158 117.555 736.956 191.027 736.221 304.173C736.221 311.52 736.221 316.663 734.752 324.01H439.395C440.865 409.238 490.826 467.28 562.828 467.28C612.789 467.28 653.198 443.035 664.954 394.543H729.609C713.445 482.709 644.382 520.18 563.563 520.18C452.62 520.18 377.679 437.892 377.679 321.072C377.679 199.108 452.62 117.555 565.032 117.555ZM443.804 276.254H667.893C664.219 208.66 621.605 168.985 566.502 168.985C506.255 168.985 457.763 204.251 443.804 276.254Z" fill="#E4E5E7"/>
<path d="M971.13 117.555C1054.89 117.555 1099.71 179.271 1099.71 254.947V509.159H1035.05V267.437C1035.05 213.803 1004.93 173.393 952.762 173.393C885.903 173.393 839.615 229.232 839.615 290.213V509.159H775.695V128.576H839.615V189.557C854.31 160.903 895.454 117.555 971.13 117.555Z" fill="#E4E5E7"/>
<path d="M1311.91 458.464C1323.66 458.464 1344.23 456.26 1358.19 451.851V504.751C1342.03 509.894 1321.46 512.833 1303.09 512.833C1235.5 512.833 1184.8 483.444 1184.8 395.278V180.74H1109.86V128.576H1184.8V33.0623L1248.72 0V128.576H1346.44V180.74H1248.72V393.809C1248.72 440.83 1275.17 458.464 1311.91 458.464Z" fill="#E4E5E7"/>
<path d="M1518.89 117.555C1594.57 117.555 1666.57 152.821 1666.57 250.539V509.159H1603.38L1604.12 447.443C1579.87 489.322 1547.54 516.506 1478.48 516.506C1418.97 516.506 1362.4 481.975 1362.4 414.381C1362.4 318.867 1443.95 285.805 1540.93 275.519L1604.85 268.907V249.069C1605.59 191.761 1562.97 168.25 1516.69 168.25C1469.66 168.25 1428.52 199.108 1424.11 243.926H1362.4C1368.27 163.107 1435.87 117.555 1518.89 117.555ZM1491.71 465.076C1556.36 465.076 1603.38 423.932 1604.12 346.787V315.928L1537.26 324.745C1470.4 332.092 1425.58 361.481 1425.58 409.238C1425.58 441.565 1451.3 465.076 1491.71 465.076Z" fill="#E4E5E7"/>
</svg>
